<?xml version="1.0" encoding="utf-8"?>
<!-- Generator: Adobe Illustrator 19.0.0, SVG Export Plug-In . SVG Version: 6.00 Build 0)  -->
<svg version="1.1" id="Layer_1" xmlns="http://www.w3.org/2000/svg" xmlns:xlink="http://www.w3.org/1999/xlink" x="0px" y="0px"
	 viewBox="0 0 96 96" style="enable-background:new 0 0 96 96;" xml:space="preserve">
<style type="text/css">
	.st0{fill:#333333;}
</style>
<g id="XMLID_1_">
	<path id="XMLID_3_" class="st0" d="M39.9,56.1c18.4,0,24.4-6,24.4-8.1v-5.5C59.4,45.7,51.2,48,39.9,48s-19.5-2.3-24.4-5.5V48
		C15.5,50.1,21.5,56.1,39.9,56.1z"/>
	<path id="XMLID_4_" class="st0" d="M39.9,42.6c18.4,0,24.4-6,24.4-8.1V29c-4.9,3.2-13.1,5.5-24.4,5.5S20.4,32.2,15.5,29v5.5
		C15.5,36.5,21.5,42.6,39.9,42.6z"/>
	<path id="XMLID_5_" class="st0" d="M57.2,59.2c-4.6,1.4-10.3,2.3-17.3,2.3c-11.3,0-19.5-2.3-24.4-5.5v2.8
		c0,7.1,12.3,10.8,24.4,10.8c4.8,0,9.6-0.6,13.6-1.7C53.9,64.6,55.2,61.6,57.2,59.2z"/>
	<path id="XMLID_6_" class="st0" d="M39.9,29c14.1,0,20.9-3.5,23.3-6.1c-3.2-4.9-13.3-7.4-23.3-7.4S19.8,18,16.6,22.9
		C19,25.5,25.8,29,39.9,29z"/>
	<polygon id="XMLID_7_" class="st0" points="80.5,67 72.4,67 72.4,58.8 67,58.8 67,67 58.8,67 58.8,72.4 67,72.4 67,80.5 72.4,80.5 
		72.4,72.4 80.5,72.4 	"/>
</g>
</svg>
